<svg width="906" height="543" viewBox="0 0 906 543" fill="none" xmlns="http://www.w3.org/2000/svg">
<path d="M265.467 4.79999C262.267 7.59999 258.267 12.9333 256.267 17.2C252.933 24.2667 252.667 25.7333 252.667 44C252.8 63.8667 253.467 68.5333 260.667 94C266.533 114.8 276.933 142.4 289.467 171.067C295.067 183.733 295.2 185.2 289.867 192C289.067 193.067 286.533 197.333 284.4 201.333C282.133 205.333 279.067 210.933 277.467 213.6C276 216.4 273.467 220.667 272.133 223.2C270.667 225.733 268 230.133 266.267 232.933C264.533 235.733 261.333 241.333 259.067 245.333C253.2 256.133 251.467 259.067 249.867 261.333C249.067 262.4 246.533 266.667 244.4 270.667C239.733 279.333 235.2 287.067 231.867 292.667C230.533 294.8 228.533 298.533 227.467 300.8C226.4 303.067 224.933 305.467 224.133 305.867C223.333 306.4 222.933 307.467 223.333 308.133C223.867 308.8 253.067 309.333 296 309.333C356.533 309.333 368.133 309.6 369.6 311.2C370.533 312.267 373.467 316.267 376 320C378.533 323.867 381.733 328.133 383.067 329.467C384.267 330.933 385.333 332.4 385.333 332.933C385.333 333.333 386.267 334.667 387.333 335.867C388.4 337.067 393.333 343.067 398.267 349.333C410.8 365.2 415.6 370.533 433.733 388.4C459.6 413.733 478.4 424.667 496.667 424.533C504.4 424.533 507.067 423.867 512.267 420.8C518.933 416.933 521.733 413.733 526.8 404C529.6 398.533 529.867 396.4 529.867 379.333C529.733 359.2 527.733 348 519.733 322.267L515.733 309.333H497.733C481.2 309.333 479.733 309.467 480.4 311.6C483.6 321.467 485.733 327.733 486.8 330C487.467 331.467 488.933 336.533 490.133 341.333C491.2 346.133 492.8 352.133 493.467 354.667C495.467 362.533 496.667 388.8 494.933 389.867C492.933 391.067 480 384 472 377.6C463.467 370.667 447.333 354.4 437.333 342.533C422 324.533 418.267 320 412 310.933C408.667 306 403.733 298.933 401.2 295.333C377.067 260.933 348.667 215.067 345.867 206.267C345.467 204.667 344.533 202.667 344 202C342.667 200.267 329.067 173.2 319.733 153.333C313.333 140.133 305.2 120.267 299.333 104C298.4 101.467 296.4 95.0667 294.933 90C293.467 84.8 291.2 77.0667 290 72.6667C287.2 63.4667 285.467 32 287.6 32C291.067 32 299.333 36.5333 308.933 43.8667C318.533 51.2 328.133 60.5333 344.4 78.5333C348 82.4 351.067 85.4667 351.333 85.2C351.467 84.9333 355.6 78 360.4 69.7333L369.2 54.8L354.267 39.6C336.667 21.6 324.133 11.3333 311.467 4.79999C302.4 0.133319 302 -1.40032e-05 286.667 -1.40032e-05H271.2L265.467 4.79999Z" fill="#3C5A6D"/>
<path d="M316 144.57L393.127 9L567 312H443.191L464.841 251.567L393.127 128.98L347.695 209.644L353 220.5L357.5 227.74L365.5 241.5L371.856 251.567H464.841L443.191 312H412.5L389.5 278.5L373 253.5L347.695 209.644L316 144.57Z" fill="#3C5A6D"/>
<path d="M0 160.8V312.267L62.4 311.733C121.067 311.2 125.333 310.933 136.667 308.267C161.6 302.133 178.8 292.8 196.933 275.467C210 263.067 224.4 240.933 228.667 226.667C229.2 224.8 230.133 222.667 230.667 222C231.2 221.2 232.133 218.533 232.667 216C233.2 213.467 234.4 208.667 235.467 205.333C236.533 202 238.133 190.533 239.2 179.733C240.933 162.533 240.933 157.467 239.2 140.4C237.333 121.333 233.867 105.2 229.867 96.4C228.8 94.1333 228 91.7333 228 91.0667C228 88.6667 217.067 68.6666 211.467 60.9333C202 47.7333 185.067 31.7333 176 27.6C174.933 27.0666 171.333 25.0666 168 23.2C160.267 18.8 151.2 15.4666 137.733 12.1333C127.6 9.46665 123.067 9.33331 63.4667 9.33331H0V160.8ZM132 78.9333C149.733 87.7333 161.733 102.667 169.067 125.067C171.733 133.733 172.4 138.8 172.933 156.8C173.6 176.667 173.333 179.067 170.133 191.6C168.267 199.067 164.8 208.8 162.4 213.467C156.4 225.2 144.267 237.067 132.667 242.8L123.333 247.333L93.7333 247.867L64 248.267V160.8V73.2L93.0667 73.6L122 74L132 78.9333Z" fill="#3C5A6D"/>
<path d="M623.2 415.2C622.8 416.267 622.667 418.533 622.933 420.267C623.333 423.333 623.6 423.333 643.067 423.733L662.667 424.133V418.667V413.333H643.333C627.733 413.333 623.733 413.733 623.2 415.2Z" fill="#3C5A6D"/>
<path d="M20.6667 432.4C17.0667 434.133 12.1333 437.733 9.73333 440.267C1.86667 449.2 1.06667 466.533 8.26667 474.267C12 478.4 21.7333 483.333 28.1333 484.533C40.6667 486.8 46.8 492.667 44.8 500.4C44 504 37.6 508 32.8 508C28.5333 508 18 502.667 13.2 498.267L9.73333 494.933L4.93333 502.533C2.26667 506.667 0 511.333 0 512.8C0 516.933 9.06667 522.4 21.0667 525.467C29.7333 527.6 32.4 527.867 39.2 526.533C60.1333 522.8 69.3333 512.933 69.3333 494.133C69.3333 485.467 68.9333 483.867 65.4667 479.2C61.0667 473.067 56.6667 470.8 41.2 466.133C32.2667 463.333 29.3333 461.867 28 459.2C22.9333 449.733 41.4667 444.267 52.2667 452C56.4 455.067 58.6667 455.333 58.6667 452.933C58.6667 452.133 60.1333 448.4 61.8667 444.667C65.0667 438.133 64.6667 434.667 60.8 434.667C60 434.667 57.6 433.6 55.3333 432.4C52.8 431.067 47.0667 430.133 39.3333 429.733C28.8 429.2 26.5333 429.6 20.6667 432.4Z" fill="#3C5A6D"/>
<path d="M141.6 431.867C127.467 437.2 117.333 445.6 111.067 457.6C107.733 464 107.333 466 107.333 478C107.333 489.6 107.733 492.267 110.667 498C114.8 506.267 125.6 517.067 133.467 520.933C136.8 522.533 143.733 524.8 148.8 525.867C157.067 527.6 159.333 527.6 168.133 525.867C179.6 523.467 186.267 520.4 194.933 513.2C205.2 504.533 210.667 491.867 210.667 476.933C210.667 469.733 207.467 457.733 204.8 454.8C203.6 453.467 202.667 452 202.667 451.467C202.667 448.933 189.467 438.267 181.6 434.4C169.867 428.8 152.8 427.733 141.6 431.867ZM171.2 453.867C178.933 458.4 182.8 464.133 183.6 472.667C184.933 484.933 183.2 491.067 176.8 497.733C170.4 504.533 163.733 506.4 152.4 504.667C147.067 503.867 144.933 502.667 140.4 497.733C134 490.933 132.8 486.667 133.6 474.133C134 467.467 134.933 464.667 137.733 460.8C145.6 450.533 160.4 447.467 171.2 453.867Z" fill="#3C5A6D"/>
<path d="M516.667 430.133C503.2 433.6 488.8 445.6 483.333 458.133C480.533 464.4 480 467.733 480 478C480 492.667 483.333 501.733 492.133 511.333C499.6 519.333 506.933 523.333 518.667 525.867C527.6 527.733 529.733 527.733 538.533 525.867C555.733 522.267 554.667 523.467 554.667 508V494.667L547.867 499.333C541.6 503.6 540.267 504 531.467 504C523.467 504 521.2 503.467 516.8 500.533C510.933 496.533 505.333 485.867 505.333 478.4C505.333 472.667 509.733 461.733 513.467 458.267C516.8 455.2 527.333 450.667 531.333 450.667C536 450.667 544.933 454.133 550 458.133L554.667 461.6V448.4V435.067L549.067 432.667C543.333 430.4 522.4 428.667 516.667 430.133Z" fill="#3C5A6D"/>
<path d="M630.667 430.133C606.8 438.933 595.2 450.8 591.867 469.867C589.333 484.933 593.333 498.933 603.6 510C615.867 523.333 635.067 529.467 653.2 525.867C674.933 521.333 689.467 508 694.267 488.133C696.267 479.867 696.267 477.467 694.8 470.4C691.467 454 681.6 441.6 665.733 434C659.333 430.933 655.867 430.267 645.333 429.867C638.4 429.6 631.733 429.733 630.667 430.133ZM656 454C662.533 458.133 667.467 465.467 668.533 472.8C669.467 479.2 667.467 491.067 665.067 494.133C657.2 503.467 651.333 506 640 504.933C624 503.467 615.6 491.333 617.867 472.8C618.667 467.333 619.867 464.4 623.467 460.133C629.733 452.933 633.867 450.933 643.067 450.8C649.067 450.667 651.867 451.333 656 454Z" fill="#3C5A6D"/>
<path d="M859.467 430.267C845.2 434.267 834.533 452 838.533 465.2C841.6 475.467 847.6 479.867 866.667 486C878 489.467 880 491.2 880 497.2C880 501.733 879.333 502.8 875.467 505.2C873.067 506.8 869.467 508 867.467 508C863.067 508 853.867 503.467 849.067 499.067C847.2 497.2 845.067 496 844.4 496.4C843.733 496.933 840.933 500.8 838.133 505.333C834 512 833.467 513.6 834.933 515.067C839.2 519.333 849.733 524.267 858.533 526C867.067 527.867 869.067 527.867 876.933 526C885.733 524 893.733 520 897.067 516C898 514.933 900.267 510.933 902 507.333C907.867 495.333 905.2 481.467 895.6 474.133C893.067 472.267 885.467 468.933 878.667 466.933C869.467 464.133 865.6 462.4 863.6 459.733C856.4 450.133 874.667 444.267 887.467 452.133C890.8 454.133 892 454.267 892.933 453.067C895.333 450 900 438.4 899.333 437.2C898.933 436.533 895.733 434.8 892.267 433.2C887.6 431.067 882.8 430.133 874 429.867C867.467 429.733 860.8 429.867 859.467 430.267Z" fill="#3C5A6D"/>
<path d="M254.267 431.467C253.733 432 253.333 453.067 253.333 478.267V524H283.333H313.333V514V504.133L297.067 503.733L280.667 503.333L280 467.333L279.333 431.333L267.333 430.933C260.667 430.8 254.8 430.933 254.267 431.467Z" fill="#3C5A6D"/>
<path d="M350.933 466.4C351.2 490.4 351.867 502.933 352.8 504.133C353.6 505.2 354.8 507.467 355.333 509.333C357.067 515.6 366.267 522.267 375.867 524.533C390.933 528 393.867 528.133 405.867 526C424.4 522.8 432.8 516.267 435.867 502.667C436.667 499.333 437.333 481.733 437.333 463.6V430.533L425.067 430.933L412.667 431.333L412 463.6C411.333 493.6 411.067 496.133 408.533 499.6C404.8 504.533 396.8 506.8 388.8 505.067C378.667 502.933 378.133 501.067 377.333 463.333L376.667 431.333L363.6 430.933L350.4 430.533L350.933 466.4Z" fill="#3C5A6D"/>
<path d="M737.333 477.333V524H767.333H797.333V514V504H780H762.667V496V488.133L779.067 487.733L795.333 487.333L795.733 477.733L796.133 468.133L779.733 467.733L763.333 467.333V459.333V451.333L780.4 450.933L797.333 450.533V440.667V430.667H767.333H737.333V477.333Z" fill="#3C5A6D"/>
<path d="M511.6 535.467C511.067 536 510.667 537.867 510.667 539.6V542.667H529.467H548.133L547.733 538.933L547.333 535.333L529.867 534.933C520.4 534.8 512.133 535.067 511.6 535.467Z" fill="#3C5A6D"/>
<path d="M605 14L755 132.5L903.5 14V311H845V145.5L755 219L664.5 149.5V312H605V14Z" fill="#3C5A6D"/>
</svg>
